<?xml version="1.0" encoding="UTF-8" standalone="no"?>
<!-- Created with Inkscape (http://www.inkscape.org/) -->

<svg
   width="205.38475mm"
   height="209.6051mm"
   viewBox="0 0 205.38475 209.6051"
   version="1.1"
   id="svg1"
   xml:space="preserve"
   inkscape:version="1.4.2 (f4327f4, 2025-05-13)"
   sodipodi:docname="sach-ideas.svg"
   inkscape:export-batch-path="svg"
   inkscape:export-batch-name="sach-ideas"
   xmlns:inkscape="http://www.inkscape.org/namespaces/inkscape"
   xmlns:sodipodi="http://sodipodi.sourceforge.net/DTD/sodipodi-0.dtd"
   xmlns="http://www.w3.org/2000/svg"
   xmlns:svg="http://www.w3.org/2000/svg"><sodipodi:namedview
     id="namedview1"
     pagecolor="#ffffff"
     bordercolor="#999999"
     borderopacity="1"
     inkscape:showpageshadow="2"
     inkscape:pageopacity="0"
     inkscape:pagecheckerboard="0"
     inkscape:deskcolor="#d1d1d1"
     inkscape:document-units="mm"
     showguides="true"
     inkscape:zoom="0.088388348"
     inkscape:cx="7879.9979"
     inkscape:cy="2709.6332"
     inkscape:window-width="1360"
     inkscape:window-height="745"
     inkscape:window-x="-8"
     inkscape:window-y="-8"
     inkscape:window-maximized="1"
     inkscape:current-layer="layer1"><sodipodi:guide
       position="-1107.0516,253.16272"
       orientation="0,-1"
       id="guide3"
       inkscape:locked="false" /><sodipodi:guide
       position="-1073.7182,269.82938"
       orientation="0,1"
       id="guide4"
       inkscape:locked="false"
       inkscape:label=""
       inkscape:color="rgb(0,134,229)" /><sodipodi:guide
       position="-1073.7182,236.49604"
       orientation="0,1"
       id="guide5"
       inkscape:locked="false"
       inkscape:label=""
       inkscape:color="rgb(0,134,229)" /><sodipodi:guide
       position="-1123.7183,303.16272"
       orientation="1,0"
       id="guide6"
       inkscape:locked="false" /><sodipodi:guide
       position="-1057.0516,303.16272"
       orientation="1,0"
       id="guide7"
       inkscape:locked="false" /><sodipodi:guide
       position="-1057.0516,286.49605"
       orientation="0,-1"
       id="guide8"
       inkscape:locked="false" /><sodipodi:guide
       position="-1057.0516,219.82938"
       orientation="0,-1"
       id="guide9"
       inkscape:locked="false" /><sodipodi:guide
       position="-1040.3849,303.16272"
       orientation="1,0"
       id="guide23"
       inkscape:locked="false" /><sodipodi:guide
       position="-1140.3849,303.16272"
       orientation="1,0"
       id="guide24"
       inkscape:locked="false" /><sodipodi:guide
       position="-1286.3955,-339.78559"
       orientation="0,-1"
       id="guide10"
       inkscape:locked="false" /><sodipodi:guide
       position="-1335.3403,-345.19875"
       orientation="1,0"
       id="guide11"
       inkscape:locked="false" /><sodipodi:guide
       position="-1286.3955,-287.18988"
       orientation="1,0"
       id="guide15"
       inkscape:locked="false" /><inkscape:page
       x="-3.5857726e-21"
       y="0"
       width="205.38475"
       height="209.6051"
       id="page2"
       margin="0"
       bleed="0" /></sodipodi:namedview><defs
     id="defs1"><clipPath
       clipPathUnits="userSpaceOnUse"
       id="clipPath56"><rect
         style="fill:#1a1a1a;fill-opacity:1;stroke:none;stroke-width:3.70642;stroke-linecap:round;stroke-linejoin:round"
         id="rect57"
         width="47.895"
         height="249.0047"
         x="213.39383"
         y="2528.8877" /></clipPath></defs><g
     inkscape:label="Capa 1"
     inkscape:groupmode="layer"
     id="layer1"
     transform="translate(-1140.3849,-93.55761)"><g
       id="g2"
       inkscape:export-filename="g2.png"
       inkscape:export-xdpi="96"
       inkscape:export-ydpi="96"><path
         id="path66"
         style="fill:#2c5f1e;fill-opacity:1"
         d="m 1243.361,100.5732 c -2.9041,0 -5.7903,0.1438 -7.6848,0.4455 -5.7741,0.9196 -10.8441,2.6002 -16.0874,5.333 -3.8313,1.997 -6.6167,4.0564 -9.8402,7.2745 -5.4275,5.4183 -8.8334,12.0388 -10.2066,19.8401 -0.4688,2.6631 -0.5254,8.5749 -0.1091,11.3807 0.9085,6.1223 3.2993,11.8638 6.9722,16.7432 1.7765,2.3601 6.33,6.8107 8.6336,8.4387 1.2767,0.9023 3.2677,2.1141 4.7806,2.9508 a 34.660416,34.660416 0 0 1 23.6042,-9.2801 34.660416,34.660416 0 0 1 34.6604,34.6604 34.660416,34.660416 0 0 1 -0.1002,2.6355 c 4.8247,3.3832 10.1068,8.4293 13.3222,12.9238 3.1963,4.4677 6.1198,11.2776 6.8755,16.016 0.276,1.7301 0.3452,-6.3868 0.4005,-46.9738 l 0.067,-49.0663 -0.8604,-1.4263 c -0.4733,-0.7846 -1.8827,-2.7922 -3.1316,-4.4612 -10.9844,-14.6796 -26.5269,-24.3137 -43.5022,-26.9658 -1.9671,-0.3075 -4.8893,-0.4644 -7.7934,-0.4687 z m -33.785,105.2489 c -0.776,0.5208 -1.5035,1.0266 -2.0764,1.4516 -9.6871,7.186 -15.9008,16.9946 -18.5621,29.3005 -0.6777,3.1336 -0.7335,3.8418 -0.7385,9.3436 0,5.1645 0.075,6.3528 0.6005,8.9695 2.2405,11.1524 7.8766,20.8726 16.2114,27.9585 8.2998,7.0561 18.858,11.646 30.0038,13.0437 2.6901,0.3374 10.0796,0.3455 12.4644,0.014 8.7032,-1.2105 17.1385,-5.3764 23.9189,-11.8122 4.4723,-4.2449 7.4313,-8.2996 10.1906,-13.964 3.9477,-8.1037 5.5815,-15.8165 5.0995,-24.0771 -0.6587,-11.2879 -5.9448,-21.4493 -14.5428,-28.2892 a 34.660416,34.660416 0 0 1 -28.7218,15.2595 34.660416,34.660416 0 0 1 -33.8475,-27.1983 z" /><g
         id="g74"
         transform="translate(-149.67093,-1227.0895)"><circle
           style="fill:#e5e6eb;fill-opacity:1;stroke:none;stroke-width:9.10613;stroke-linecap:round;stroke-linejoin:round"
           id="circle71"
           cx="319.09668"
           cy="2673.9902"
           clip-path="url(#clipPath56)"
           transform="translate(1076.662,-1247.6402)"
           r="105.70293" /><circle
           style="fill:#e5e6eb;fill-opacity:1;stroke:none;stroke-width:9.10613;stroke-linecap:round;stroke-linejoin:round"
           id="circle72"
           cx="319.09668"
           cy="2673.9902"
           clip-path="url(#clipPath56)"
           transform="matrix(-1,0,0,1,1708.8344,-1247.6402)"
           r="105.70293" /></g><circle
         style="fill:#cfaf4a;fill-opacity:1;stroke:none;stroke-width:5.10544;stroke-linecap:round;stroke-linejoin:round"
         id="circle74"
         cx="1243.4237"
         cy="198.36018"
         r="25" /></g></g></svg>
